<svg xmlns="http://www.w3.org/2000/svg" width="500" viewBox="0 0 375 375" height="500" version="1.0"><defs><clipPath id="a"><path d="M112.18 162.668h150.64v74.95H112.18Zm0 0"/></clipPath><clipPath id="b"><path d="M183 23.234h9V155h-9Zm0 0"/></clipPath></defs><path d="M93.08 253.927H77.894v39.523h8.528v-12.308h6.66c7.96 0 13.945-5.817 13.945-13.606 0-7.793-6.039-13.609-13.945-13.609Zm-.394 19.313h-6.265v-11.352h6.265c3.387 0 5.703 2.371 5.703 5.648 0 3.274-2.316 5.704-5.703 5.704ZM144.624 293.45h9.317l-15.98-39.523h-8.075l-15.523 39.523h9.09l2.706-7.453h15.7Zm-10.613-29.078 5.191 14.172h-10.386ZM189.446 253.927l-9.71 27.95-9.997-27.95h-9.426l15.415 39.523h8.07l14.965-39.523ZM235.623 293.45h9.316l-15.98-39.523h-8.074L205.36 293.45h9.09l2.707-7.453h15.7Zm-10.613-29.078 5.191 14.172h-10.387ZM280.386 253.927v24.11l-17.332-24.11h-7.68v39.523h8.356V268.78l17.898 24.671h7.172v-39.523Zm0 0" fill="#fabc18"/><g clip-path="url(#a)"><path fill="#fabc18" d="M262.46 237.617c0-41.36-33.562-74.89-74.96-74.89-41.398 0-74.957 33.53-74.957 74.89h149.918"/></g><g clip-path="url(#b)"><path fill="#fabc18" d="m185.82 23.363-1.976 131.14h7.312Zm0 0"/></g><path fill="#fabc18" d="m210.488 60.336-15.207 94.453 7.242 1 7.965-95.453M230.938 83.793l-24.372 72.844 7.04 1.984 17.332-74.828M245.582 105l-28.086 55.012 3.352 1.465 3.347 1.464L245.582 105M282.035 84.984l-54.176 79.868 6.235 3.816 47.941-83.684M277.816 127.71l-40.355 43.353 5.648 4.64 34.707-47.992M304.996 129.156l-58.879 49.38 4.965 5.366 53.914-54.746M334.984 134.98l-81.316 52.137 4.184 5.996 77.132-58.133M300.457 180.16l-40.484 16.496 1.66 3.254 1.656 3.254 37.168-23.004M338.66 185.313l-73.75 21.652 2.39 6.906 71.36-28.559M329.934 209.371l-61.551 8.484 1.422 7.168 60.129-15.652M375 228.957l-104.672.16.215 3.649.215 3.644L375 228.957M169.145 105.07l10.578 49.72-7.243 1-3.335-50.72M136.477 55.406l31.957 101.23-7.04 1.985-24.917-103.215M139.137 127.184l18.367 32.828-6.695 2.93-11.672-35.758M103.895 101.355l43.246 63.497-3.118 1.91-3.113 1.906-37.015-67.313M97.184 127.71l40.359 43.353-2.828 2.32-2.824 2.32-34.707-47.992M70.004 129.156l58.879 49.38-4.961 5.366-53.918-54.746M32.86 129.355l88.472 57.762-2.09 2.996-2.09 3-84.293-63.758M52.34 168.867l62.687 27.79-1.66 3.253-1.656 3.254-59.371-34.297M36.34 185.313l73.754 21.652-1.2 3.453-1.195 3.453-71.36-28.559M45.066 209.371l61.555 8.484-.715 3.583-.71 3.585-60.13-15.652M0 228.957l104.672.16-.215 3.649-.21 3.644L0 228.957"/></svg>